<svg width="30" height="30" viewBox="0 0 30 30" fill="none" xmlns="http://www.w3.org/2000/svg">
<path fill-rule="evenodd" clip-rule="evenodd" d="M23.1062 11.9422C23.115 12.1035 23.115 12.2736 23.115 12.4438C23.115 17.5815 19.202 23.5112 12.0476 23.5112C9.85345 23.5112 7.80305 22.8644 6.10171 21.7512C6.40825 21.7923 6.71478 21.8084 7.02865 21.8084C8.85171 21.8084 10.531 21.188 11.8613 20.1467C10.16 20.1144 8.72265 18.9939 8.23131 17.4436C8.47331 17.492 8.71531 17.517 8.96465 17.517C9.32105 17.517 9.66718 17.4686 9.99131 17.3791C8.20785 17.0168 6.86878 15.4519 6.86878 13.5643V13.5159C7.39238 13.8063 7.98931 13.9838 8.62731 13.9999C7.57865 13.3062 6.89225 12.1123 6.89225 10.7644C6.89225 10.056 7.08585 9.38576 7.41731 8.81229C9.33571 11.1692 12.2001 12.7166 15.4356 12.8794C15.3622 12.5963 15.33 12.2971 15.33 11.9906C15.33 9.84482 17.0724 8.10389 19.2181 8.10389C20.3386 8.10389 21.3477 8.57029 22.0576 9.33002C22.9449 9.15256 23.775 8.82989 24.526 8.38549C24.237 9.29629 23.624 10.056 22.8158 10.54C23.6064 10.4432 24.3573 10.2335 25.0496 9.92549C24.526 10.7087 23.8645 11.3936 23.1062 11.9422ZM15 0.333496C6.89813 0.333496 0.333328 6.89976 0.333328 15.0002C0.333328 23.0991 6.89813 29.6668 15 29.6668C23.0989 29.6668 29.6667 23.0991 29.6667 15.0002C29.6667 6.89976 23.0989 0.333496 15 0.333496Z" fill="white"/>
</svg>
